<svg
            width="352"
            height="353"
            viewBox="0 0 352 353"
            fill="none"
            xmlns="http://www.w3.org/2000/svg">
            <circle cx="176" cy="176.38" r="176" fill="#E0FF22" />
            <path
              d="M282.501 143.565C281.816 141.916 280.505 140.605 278.856 139.92C278.045 139.574 277.173 139.391 276.291 139.38H242.541C240.751 139.38 239.034 140.092 237.768 141.357C236.502 142.623 235.791 144.34 235.791 146.13C235.791 147.921 236.502 149.637 237.768 150.903C239.034 152.169 240.751 152.88 242.541 152.88H260.024L222.291 190.613L200.084 168.338C199.456 167.705 198.71 167.203 197.887 166.86C197.064 166.518 196.182 166.341 195.291 166.341C194.4 166.341 193.518 166.518 192.695 166.86C191.873 167.203 191.126 167.705 190.499 168.338L149.999 208.838C149.366 209.465 148.864 210.212 148.521 211.034C148.178 211.857 148.002 212.739 148.002 213.63C148.002 214.521 148.178 215.404 148.521 216.226C148.864 217.049 149.366 217.795 149.999 218.423C150.626 219.056 151.373 219.558 152.195 219.9C153.018 220.243 153.9 220.42 154.791 220.42C155.682 220.42 156.564 220.243 157.387 219.9C158.21 219.558 158.956 219.056 159.584 218.423L195.291 182.648L217.499 204.923C218.126 205.556 218.873 206.058 219.695 206.4C220.518 206.743 221.4 206.92 222.291 206.92C223.182 206.92 224.064 206.743 224.887 206.4C225.71 206.058 226.456 205.556 227.084 204.923L269.541 162.398V179.88C269.541 181.671 270.252 183.387 271.518 184.653C272.784 185.919 274.501 186.63 276.291 186.63C278.081 186.63 279.798 185.919 281.064 184.653C282.33 183.387 283.041 181.671 283.041 179.88V146.13C283.03 145.248 282.847 144.377 282.501 143.565Z"
              fill="#3461FF"
            />
            <path
              d="M119.711 133.785C120.289 134.12 120.737 134.642 120.98 135.264C121.224 135.887 121.249 136.573 121.052 137.212L110.41 171.791H130.046C130.623 171.791 131.187 171.96 131.669 172.277C132.152 172.594 132.53 173.045 132.759 173.575C132.988 174.104 133.057 174.69 132.957 175.258C132.857 175.826 132.592 176.353 132.196 176.773L84.9245 226.999C84.4671 227.486 83.8585 227.803 83.1978 227.899C82.5371 227.995 81.8633 227.864 81.2862 227.529C80.7091 227.193 80.2628 226.671 80.02 226.049C79.7772 225.428 79.7522 224.742 79.9492 224.104L90.5913 189.518H70.9557C70.3786 189.519 69.8142 189.35 69.3319 189.033C68.8497 188.716 68.4708 188.265 68.2421 187.735C68.0133 187.205 67.9447 186.62 68.0447 186.052C68.1447 185.484 68.4089 184.957 68.8048 184.537L116.077 134.311C116.534 133.825 117.141 133.508 117.801 133.412C118.461 133.315 119.134 133.444 119.711 133.779V133.785Z"
              fill="#3461FF"
            />
          </svg>