<svg width="148" height="57" viewBox="0 0 148 57" fill="none" xmlns="http://www.w3.org/2000/svg">
<path d="M8.388 36.4381H16.452V41.1901H2.232V15.9181H8.388V36.4381ZM22.4843 19.0141C21.4043 19.0141 20.5163 18.7021 19.8203 18.0781C19.1483 17.4301 18.8123 16.6381 18.8123 15.7021C18.8123 14.7421 19.1483 13.9501 19.8203 13.3261C20.5163 12.6781 21.4043 12.3541 22.4843 12.3541C23.5403 12.3541 24.4043 12.6781 25.0763 13.3261C25.7723 13.9501 26.1203 14.7421 26.1203 15.7021C26.1203 16.6381 25.7723 17.4301 25.0763 18.0781C24.4043 18.7021 23.5403 19.0141 22.4843 19.0141ZM25.5443 21.1021V41.1901H19.3883V21.1021H25.5443ZM42.2454 20.8861C44.5974 20.8861 46.4694 21.6541 47.8614 23.1901C49.2774 24.7021 49.9854 26.7901 49.9854 29.4541V41.1901H43.8654V30.2821C43.8654 28.9381 43.5174 27.8941 42.8214 27.1501C42.1254 26.4061 41.1894 26.0341 40.0134 26.0341C38.8374 26.0341 37.9014 26.4061 37.2054 27.1501C36.5094 27.8941 36.1614 28.9381 36.1614 30.2821V41.1901H30.0054V21.1021H36.1614V23.7661C36.7854 22.8781 37.6254 22.1821 38.6814 21.6781C39.7374 21.1501 40.9254 20.8861 42.2454 20.8861ZM66.5393 41.1901L60.4193 32.7661V41.1901H54.2633V14.5501H60.4193V29.2741L66.5033 21.1021H74.0993L65.7473 31.1821L74.1713 41.1901H66.5393ZM79.6132 19.0141C78.5332 19.0141 77.6452 18.7021 76.9492 18.0781C76.2772 17.4301 75.9412 16.6381 75.9412 15.7021C75.9412 14.7421 76.2772 13.9501 76.9492 13.3261C77.6452 12.6781 78.5332 12.3541 79.6132 12.3541C80.6692 12.3541 81.5332 12.6781 82.2052 13.3261C82.9012 13.9501 83.2492 14.7421 83.2492 15.7021C83.2492 16.6381 82.9012 17.4301 82.2052 18.0781C81.5332 18.7021 80.6692 19.0141 79.6132 19.0141ZM82.6732 21.1021V41.1901H76.5172V21.1021H82.6732Z" fill="black"/>
<path fill-rule="evenodd" clip-rule="evenodd" d="M126.602 27.4028L118.448 32.9954L115.692 28.9775L123.847 23.3849L126.602 27.4028ZM131.163 34.0531L138.507 44.7608L147.295 38.7339L128.074 10.7077L111.131 22.3272L103.788 11.6195L95 17.6464L114.221 45.6725L131.163 34.0531Z" fill="black"/>
</svg>
